<?xml version="1.0" standalone="no"?>
<!DOCTYPE svg PUBLIC "-//W3C//DTD SVG 20010904//EN"
 "http://www.w3.org/TR/2001/REC-SVG-20010904/DTD/svg10.dtd">
<svg version="1.0" xmlns="http://www.w3.org/2000/svg"
 width="50.000000pt" height="50.000000pt" viewBox="0 0 50.000000 50.000000"
 preserveAspectRatio="xMidYMid meet">

<g transform="translate(0.000000,50.000000) scale(0.100000,-0.100000)"
fill="#000000" stroke="none">
<path d="M0 299 c0 -180 2 -203 18 -215 16 -13 16 -15 0 -25 -10 -5 -18 -21
-18 -34 0 -21 5 -25 29 -25 24 0 28 3 24 20 -4 15 0 20 15 20 25 0 74 -25 65
-33 -3 -4 1 -7 11 -7 9 0 15 4 12 9 -8 12 20 22 41 14 15 -6 15 -7 -3 -14 -10
-4 54 -8 144 -8 138 -1 162 1 162 14 0 8 -4 15 -10 15 -14 0 -12 96 3 121 10
17 10 23 0 26 -9 3 -13 30 -13 84 0 51 4 78 10 74 6 -4 10 25 10 79 l0 86
-250 0 -250 0 0 -201z m387 175 c-3 -3 -12 -4 -19 -1 -8 3 -5 6 6 6 11 1 17
-2 13 -5z m101 -21 c5 -17 -17 -16 -48 2 l-25 13 34 -1 c19 -1 36 -8 39 -14z
m-223 -60 c22 27 34 34 44 28 12 -8 8 -17 -22 -50 -20 -23 -37 -43 -37 -46 0
-2 9 -9 20 -15 16 -8 34 -7 77 5 30 9 57 15 58 13 2 -2 5 -17 7 -33 3 -29 1
-30 -39 -33 -24 -2 -43 -7 -43 -13 0 -5 5 -9 10 -9 20 0 9 -21 -17 -31 -21 -8
-30 -6 -48 11 -35 33 -51 24 -22 -13 22 -29 24 -39 17 -75 -4 -24 -11 -46 -15
-50 -8 -9 -35 27 -35 47 0 34 -22 91 -34 91 -7 0 -19 -11 -26 -25 -13 -25 -55
-44 -67 -31 -4 3 11 24 32 46 37 38 38 40 21 59 -9 10 -30 21 -47 25 -33 6
-39 25 -8 33 16 5 19 11 14 35 -4 17 -2 35 5 43 16 19 54 19 70 0 17 -21 27
-19 37 8 6 19 8 17 13 -18 l5 -39 30 37z m-248 -120 c-2 -16 -4 -5 -4 22 0 28
2 40 4 28 2 -13 2 -35 0 -50z m0 -130 c-3 -10 -5 -4 -5 12 0 17 2 24 5 18 2
-7 2 -21 0 -30z m313 -28 c7 -8 20 -15 29 -15 14 -1 13 -2 -2 -11 -14 -8 -23
-7 -38 7 -10 9 -19 21 -19 26 0 13 16 9 30 -7z m108 -102 c-10 -2 -28 -2 -40
0 -13 2 -5 4 17 4 22 1 32 -1 23 -4z"/>
</g>
</svg>
